<?xml version="1.0" encoding="UTF-8" standalone="no"?>
<svg width="60px" height="60px" viewBox="0 0 589 590" version="1.1" xmlns="http://www.w3.org/2000/svg" xmlns:xlink="http://www.w3.org/1999/xlink" xml:space="preserve" xmlns:serif="http://www.serif.com/" style="fill-rule: evenodd;clip-rule: evenodd;stroke-linejoin: round;stroke-miterlimit: 2;">
  <g id="Circle-2" transform="matrix(9.81667,0,0,9.81667,0,0)">
    <path d="M23,60C10.297,60 0,49.703 0,37L0,23C-0,10.297 10.297,0 23,0L37,0C49.703,-0 60,10.297 60,23L60,37C60,49.703 49.703,60 37,60L23,60Z" style="fill: rgb(96,118,154);fill-opacity: 0.3;" />
  </g>
  <g transform="matrix(0.603324,0,0,0.603324,116.853,117.025)">
    <path d="M294.078,589C132,589 0,457 0,294.918C0,132.84 132,0.84 294.078,0.84C456.16,0.84 588.16,132.84 588.16,294.918C588.16,457 456.32,589 294.078,589ZM294.078,41.16C154.238,41.16 40.32,154.918 40.32,294.918C40.32,434.918 154.078,548.68 294.078,548.68C434.078,548.68 547.84,434.918 547.84,294.918C547.84,154.918 434.078,41.16 294.078,41.16Z" style="fill: rgb(130,130,130);fill-rule: nonzero;" />
    <path d="M292.641,300.52C322.398,280.039 393.121,242.918 380.32,144.52C368.641,55.078 283.199,33 261.441,28.84C128.641,44.84 25.602,157.961 25.602,295.238C25.602,443.559 145.762,563.719 294.078,563.719C309.602,563.719 324.641,562.281 339.359,559.879C315.359,559.559 274.719,553.16 236.801,519.399C136,379.559 262.879,320.84 292.641,300.52Z" style="fill: rgb(130,130,130);fill-rule: nonzero;" />
    <path d="M562.719,295.238C562.719,146.918 442.559,26.762 294.238,26.762C283.199,26.762 272.32,27.559 261.601,28.84C283.359,33 368.801,55.078 380.48,144.52C393.281,242.918 322.398,280.039 292.801,300.52C263.039,321 133.922,382.281 237.121,519.559C275.039,553.32 307.84,567.719 339.68,560.039C466.238,538.442 562.719,428.199 562.719,295.238Z" style="fill: white;fill-rule: nonzero;" />
    <path d="M195.52,156.199C195.52,170.719 203.266,184.137 215.84,191.395C228.414,198.656 243.906,198.656 256.48,191.395C269.055,184.137 276.801,170.719 276.801,156.199C276.801,133.754 258.605,115.559 236.16,115.559C213.715,115.559 195.52,133.754 195.52,156.199Z" style="fill: white;fill-rule: nonzero;" />
    <path d="M276.641,438.281C276.641,452.801 284.387,466.215 296.961,473.477C309.535,480.735 325.027,480.735 337.602,473.477C350.176,466.215 357.922,452.801 357.922,438.281C357.922,415.836 339.727,397.641 317.281,397.641C294.836,397.641 276.641,415.836 276.641,438.281Z" style="fill: rgb(130,130,130);fill-rule: nonzero;" />
  </g>
</svg>
